<svg xmlns="http://www.w3.org/2000/svg" xmlns:xlink="http://www.w3.org/1999/xlink" width="95.722" height="95.724" viewBox="0 0 95.722 95.724">
  <defs>
    <linearGradient id="linear-gradient" x1="0.5" x2="0.5" y2="1" gradientUnits="objectBoundingBox">
      <stop offset="0" stop-color="#f15d63"/>
      <stop offset="1" stop-color="#ec1c24"/>
    </linearGradient>
  </defs>
  <path id="noun-delivered-4088802" d="M92.279,17.5A4.806,4.806,0,0,0,87.5,22.283V68.555a4.8,4.8,0,0,0,4.783,4.78h43.928a17.518,17.518,0,0,1,13.5-28.711V22.283a4.8,4.8,0,0,0-4.78-4.783H128.988V35.05a3.25,3.25,0,0,1-4.8,2.754l-5.581-3.215L113.028,37.8a3.244,3.244,0,0,1-4.8-2.754V17.5Zm25.544,13.876a1.594,1.594,0,0,1,1.589,0l6.381,3.674V17.5h-14.38l.006,17.549Zm31.887,16.44a14.422,14.422,0,1,0,13.816,10.5L153.1,68.743a4.787,4.787,0,0,1-6.783,0l-6.385-6.372a4.8,4.8,0,0,1,6.783-6.783l2.991,3,8.2-8.188a14.263,14.263,0,0,0-8.2-2.587Zm14.333,1.577a1.6,1.6,0,0,0-1.094.483L149.711,63.1l-5.251-5.253a1.6,1.6,0,0,0-2.262,2.262l6.384,6.382a1.6,1.6,0,0,0,2.259,0L165.2,52.137a1.6,1.6,0,0,0-1.156-2.745Zm-66.976,4.8a1.532,1.532,0,0,1,1.6,1.6v7.977a1.6,1.6,0,1,1-3.191,0V55.79A1.532,1.532,0,0,1,97.068,54.191Zm6.382,0a1.532,1.532,0,0,1,1.6,1.6v7.977a1.6,1.6,0,1,1-3.191,0V55.79A1.532,1.532,0,0,1,103.449,54.191Zm6.381,0a1.532,1.532,0,0,1,1.6,1.6v7.977a1.6,1.6,0,1,1-3.191,0V55.79a1.532,1.532,0,0,1,1.595-1.6ZM105.72,79.71a5.532,5.532,0,0,0-2.365,10.3s30.617,22.861,37.815,23.214c5.795,0,15.935-3.191,18.833-3.191h2.474V86.1h-1.6c-1.6,0-1.6,0-1.994-.165L151.9,82.951H129.212a5.121,5.121,0,0,0-.875.084,3.214,3.214,0,0,0-2.446,3.053,3.251,3.251,0,0,0,3.322,3.169h12.635a1.6,1.6,0,1,1,0,3.191H129.212a6.51,6.51,0,0,1-5.836-3.587l-14.524-8.419a5.456,5.456,0,0,0-3.132-.732Zm62.845,3.2a2.954,2.954,0,0,0-2.9,3.019V110.2a2.954,2.954,0,0,0,2.9,3.019h9.865a3.02,3.02,0,0,0,2.9-3.019l1.885-24.274a2.9,2.9,0,0,0-2.9-3.019Zm6.674,22.336a1.6,1.6,0,1,1-1.6,1.6A1.6,1.6,0,0,1,175.239,105.246Z" transform="translate(-87.496 -17.5)" opacity="0.25" fill="url(#linear-gradient)"/>
</svg>
