<svg xmlns="http://www.w3.org/2000/svg" xmlns:xlink="http://www.w3.org/1999/xlink" width="68.223" height="103.401" viewBox="0 0 68.223 103.401">
  <defs>
    <linearGradient id="linear-gradient" x1="0.5" x2="0.5" y2="1" gradientUnits="objectBoundingBox">
      <stop offset="0" stop-color="#f15d63"/>
      <stop offset="1" stop-color="#ec1c24"/>
    </linearGradient>
  </defs>
  <path id="noun-price-4574840" d="M76.014,47.3l.14-.508A50.113,50.113,0,0,0,77.83,33.616c0-13.66-4.862-24.336-11.057-24.336-6.233,0-11.1,10.676-11.1,24.336A47.727,47.727,0,0,0,57.9,48.469c.1.279.165.508.279.749l-1.638.444-9.889,2.666L23.14,93.067,57.1,112.681,80.648,71.943,75.722,53.5,65.071,47.365l-2.7.724a13.091,13.091,0,0,0,2.742,4.659,4.306,4.306,0,0,1,3.39,0,2.549,2.549,0,0,1,.444.241,3.569,3.569,0,0,1,.99.787l-.787.647a3.321,3.321,0,0,1-4.723,0,4.466,4.466,0,0,1-.749-.724,15.886,15.886,0,0,1-3.009-5.129c-.1-.3-.2-.622-.3-.927A45.513,45.513,0,0,1,58.28,33.616c0-12.835,4.481-21.772,8.518-21.772,4,0,8.493,8.937,8.493,21.772a47.726,47.726,0,0,1-1.574,12.492l-.33,1.193H68.4l8.493,4.9a.974.974,0,0,1,.406.508l5.065,19.131a.889.889,0,0,1-.063.647L61.86,107.844h29.5V60.784L77.906,47.3ZM62.532,56.163a1.655,1.655,0,0,0,.279.241,6.145,6.145,0,0,0,3.974,1.574,6.26,6.26,0,0,0,4-1.574l.241-.2a4.278,4.278,0,0,1-.381,2.361c-.038.1-.1.165-.14.279a4.176,4.176,0,0,1-2.641,1.98,3.919,3.919,0,0,1-1.092.165,4.408,4.408,0,0,1-2.158-.584,4.353,4.353,0,0,1-1.676-1.815.037.037,0,0,0-.038-.038,6.526,6.526,0,0,1-.279-.749A4.784,4.784,0,0,1,62.532,56.163Z" transform="translate(-23.14 -9.28)" opacity="0.25" fill="url(#linear-gradient)"/>
</svg>
