<svg xmlns="http://www.w3.org/2000/svg" xmlns:xlink="http://www.w3.org/1999/xlink" width="128.918" height="104.185" viewBox="0 0 128.918 104.185">
  <defs>
    <linearGradient id="linear-gradient" x1="0.5" x2="0.5" y2="1" gradientUnits="objectBoundingBox">
      <stop offset="0" stop-color="#f15d63"/>
      <stop offset="1" stop-color="#ec1c24"/>
    </linearGradient>
  </defs>
  <g id="home-project-icon-vector-5359634" opacity="0.25">
    <path id="Path_1319" data-name="Path 1319" d="M41.887-958.606a12.069,12.069,0,0,0-5.131,1.83,11.684,11.684,0,0,0-4.87,6.576L31.5-948.99V-924.5c0,22.975.014,24.543.248,25.382a11.317,11.317,0,0,0,3.123,5.5,10.552,10.552,0,0,0,3.714,2.559c2.091.853,1.252.8,15.037.88l12.629.069-7.677,7.374c-10.194,9.8-9.2,8.791-9.479,9.7a3.021,3.021,0,0,0,.22,2.394,3.181,3.181,0,0,0,4.182,1.293c.261-.137,2.242-1.94,4.375-3.99s5.943-5.7,8.433-8.09l4.54-4.361.069,5.9L70.983-874l.385.578a3.885,3.885,0,0,0,.949.949c.509.344.7.385,1.706.385,1.032,0,1.183-.041,1.72-.413a3.244,3.244,0,0,0,.977-1.156l.385-.729v-5.627c0-3.1.041-5.627.11-5.627s3.88,3.632,8.488,8.062,8.571,8.158,8.791,8.268a3.859,3.859,0,0,0,1.2.275,3.1,3.1,0,0,0,3.013-4.5c-.289-.55-1.651-1.9-10.51-10.4l-6.452-6.177,12.643-.069c12.56-.069,12.643-.082,13.633-.385a11.463,11.463,0,0,0,3.549-1.692,11.728,11.728,0,0,0,4.636-6.659c.275-1.032.3-1.458.344-6.328l.055-5.228-.935-.619a54.547,54.547,0,0,1-4.43-3.55l-.963-.867-.041,7.539-.041,7.553-.523,1.046a4.7,4.7,0,0,1-2.435,2.421l-.757.371H41.543l-.908-.44A5.219,5.219,0,0,1,38.2-899.5l-.371-.784-.041-23.8c-.041-26.4-.1-24.543.867-26a5,5,0,0,1,2.242-1.83l.784-.371h64.659l.784.371a6.051,6.051,0,0,1,2.408,2.132c.715,1.225.729,1.417.729,9.961v7.924l1.169.715a39.829,39.829,0,0,1,4.512,3.453l.66.578L116.561-938c-.055-10.607-.055-10.882-.344-11.9a11.844,11.844,0,0,0-8.419-8.419l-1.046-.3-32.261-.013C56.744-958.648,42.079-958.634,41.887-958.606Z" transform="translate(-31.5 958.639)" fill="url(#linear-gradient)"/>
    <path id="Path_1320" data-name="Path 1320" d="M802.1-887.7a8.135,8.135,0,0,0-6.48,5.269,7.9,7.9,0,0,0,7.58,10.469,8.05,8.05,0,0,0,7.773-7.91,8.352,8.352,0,0,0-3.673-6.617A8.969,8.969,0,0,0,802.1-887.7Z" transform="translate(-690.115 897.5)" fill="url(#linear-gradient)"/>
    <path id="Path_1321" data-name="Path 1321" d="M266.045-862.3c-2.022,1.059-10.51,6.122-10.676,6.37-.206.3-.206.358.055.7l.275.371h22.369l.275-.371c.262-.344.262-.4.055-.7a53.238,53.238,0,0,0-5.9-3.357c-3.123-1.664-5.778-3.054-5.9-3.109A.839.839,0,0,0,266.045-862.3Z" transform="translate(-224.443 875.654)" fill="url(#linear-gradient)"/>
    <path id="Path_1322" data-name="Path 1322" d="M202.151-803.752a2.246,2.246,0,0,0-.784.7l-.316.468v29.262h-2.614v-29.991H175.049v30l-1.266-.041-1.279-.041-.069-11.831c-.083-13.18,0-12.217-1.059-12.739-.537-.261-.784-.275-3.3-.234-2.958.041-3.15.1-3.715.908-.234.358-.248,1.018-.289,12.148l-.027,11.79-.413.069a1.649,1.649,0,0,0-1.128,2.38c.605.949-1.279.88,24.336.88,22.094,0,23.112-.014,23.552-.248a2.044,2.044,0,0,0,.977-1.472A1.928,1.928,0,0,0,210.2-773.2l-.619-.275v-14.583c0-16.344.083-15.133-.991-15.684-.454-.234-.825-.261-3.233-.261C203.031-804,202.563-803.959,202.151-803.752Zm4.677,3.192v1.651H203.8v-1.555a7.652,7.652,0,0,1,.1-1.651,6.541,6.541,0,0,1,1.513-.1h1.417Zm-26,.482v1.582h-2.889v-3.164h2.889Zm7.291,0v1.582h-2.889v-3.164h2.889Zm7.291,0v1.582h-2.889v-3.164h2.889Zm-25.616,5.462.041,1.623h-3.04v-3.316l1.486.042,1.472.041Zm37.034-.028v1.651H203.8v-1.555a7.651,7.651,0,0,1,.1-1.651,6.526,6.526,0,0,1,1.513-.1h1.417Zm-26,.344v1.582h-2.889v-3.164h2.889Zm7.291,0v1.582h-2.889v-3.164h2.889Zm7.291,0v1.582h-2.889v-3.164h2.889Zm-25.616,5.531-.041,1.623-1.472.041-1.486.042v-3.316h3.04Zm37.034.041v1.665l-1.472-.042-1.486-.041-.041-1.623-.041-1.61h3.04Zm-26,.206v1.582h-2.889V-790.1h2.889Zm7.291,0v1.582h-2.889V-790.1h2.889Zm7.291,0v1.582h-2.889V-790.1h2.889Zm-25.588,5.641v1.582h-3.027v-3.164h3.027Zm37.007,0v1.582H203.8v-3.164h3.027Zm-26,.137v1.582h-2.889v-3.164h2.889Zm7.291,0v1.582h-2.889v-3.164h2.889Zm7.291,0v1.582h-2.889v-3.164h2.889Zm-25.588,5.778v1.582h-3.027v-3.164h3.027Zm11.006,0v1.582h-2.889v-3.164h2.889Zm7.291,0v1.582h-2.889v-3.164h2.889Zm7.291,0v1.582h-2.889v-3.164h2.889Zm11.418,0v1.582H203.8v-3.164h3.027Z" transform="translate(-144.302 825.274)" fill="url(#linear-gradient)"/>
    <path id="Path_1323" data-name="Path 1323" d="M589.733-765.794a7.043,7.043,0,0,0-1.541.578c-.371.22-3.233,2.655-6.342,5.407s-5.778,5.09-5.9,5.186c-.193.138-.935-.454-5.035-3.962a60.656,60.656,0,0,0-5.558-4.485,4.727,4.727,0,0,0-3.1-.317,3.39,3.39,0,0,0-1.871,4.884,6.983,6.983,0,0,0,.853,1.335c.262.275,3.1,2.751,6.315,5.489,6.81,5.806,6.851,5.833,8.942,5.833,2.132,0,2.408-.179,8.254-5.365l4.884-4.347.069,31.683.069,31.684.357.757a5.446,5.446,0,0,0,3.935,3.027,5.382,5.382,0,0,0,6.026-3.783c.069-.206.151-.11.4.5a4.921,4.921,0,0,0,2.531,2.793,5.314,5.314,0,0,0,7.223-2.518l.44-.908.041-18.229.041-18.228.949-.454c2.669-1.252,3.99-4.155,4.4-9.74.22-2.834-.041-16.922-.344-19.178-.4-3-1.2-5.118-2.38-6.3-1.087-1.087-2.573-1.541-5.118-1.541h-1.307l-.592,1.9a49.619,49.619,0,0,1-3.261,7.938c-1.995,3.907-2.586,4.829-3.013,4.664-.316-.124-1.211-1.623-2.627-4.375a50.926,50.926,0,0,1-3.4-8.241L593.489-766l-1.445.014A14.536,14.536,0,0,0,589.733-765.794Z" transform="translate(-487.283 792.502)" fill="url(#linear-gradient)"/>
    <path id="Path_1324" data-name="Path 1324" d="M838.437-750.914a14.581,14.581,0,0,0,.427,2.779c.069.22.261.248,1.513.248a9.891,9.891,0,0,0,1.431-.055c0-.028.124-.66.275-1.4a8.344,8.344,0,0,0,.22-1.527A11.389,11.389,0,0,0,838.437-750.914Z" transform="translate(-727.417 779.618)" fill="url(#linear-gradient)"/>
    <path id="Path_1325" data-name="Path 1325" d="M838.233-722.631c-.069.179-.234.826-.371,1.458l-.262,1.142.385.784c.206.427.66,1.307,1,1.94l.633,1.156.33-.537c.179-.289.646-1.156,1.032-1.926l.7-1.376-.33-1.444-.331-1.431-1.348-.042C838.4-722.948,838.329-722.934,838.233-722.631Z" transform="translate(-726.703 755.352)" fill="url(#linear-gradient)"/>
  </g>
</svg>
