<svg xmlns="http://www.w3.org/2000/svg" xmlns:xlink="http://www.w3.org/1999/xlink" width="115.084" height="115.952" viewBox="0 0 115.084 115.952">
  <defs>
    <linearGradient id="linear-gradient" x1="0.5" x2="0.5" y2="1" gradientUnits="objectBoundingBox">
      <stop offset="0" stop-color="#f15d63"/>
      <stop offset="1" stop-color="#ec1c24"/>
    </linearGradient>
  </defs>
  <path id="noun-construction-5283056" d="M77.773,53.812l-2.848-2.848-2.848,2.848Zm19.722,72.9H90.761v6.1h6.734Zm10.52,0H101.28v6.1h6.734Zm-10.52-13.676H90.761v-6.1h6.734Zm10.52,0H101.28v-6.1h6.734Zm-6.734,3.787h6.734v6.1h-6.734Zm-10.52,0H97.5v6.1H90.761Zm0-26h17.254v2.32H90.761Zm39.076,10.547H123.1v6.1h6.734Zm10.52,0h-6.734v6.1h6.734Zm-10.52-13.674H123.1v-6.1h6.734Zm10.52,0h-6.734v-6.1h6.734Zm-6.733,3.786h6.734v6.1h-6.734Zm-10.521,0h6.734v6.1H123.1Zm-5.651,51.109V72.351H146.01v70.235h-6.946V122.915a3.516,3.516,0,0,0-3.677-3.314h-7.309a3.517,3.517,0,0,0-3.677,3.314v19.672ZM123.1,66.128h17.254v2.438H123.1Zm-9.438,76.459H85.109V96.926h28.557ZM82.816,53.5l2.848-2.848h-5.7Zm10.739.311-2.848-2.848L87.86,53.812Zm12.715-2.629-2.629,2.629h5.772ZM98.6,53.5l2.848-2.848h-5.7ZM69.484,45.92H93.856L69.484,34.193Zm-10.95,0h6.218V31.365H62.468Zm5.908,74.846-7.874-7.874V128.64Zm.311-20.791v15.749l-7.874-7.874Zm-.311-5.043-7.874-7.874v15.749Zm.311-20.791V89.889l-7.874-7.874ZM64.441,69.1l-7.874-7.874V76.97Zm-5.2-10.551h5.508v5.508Zm4.941-7.89L67.032,53.5l2.848-2.848Zm-2.2,3.159-2.848-2.848-2.848,2.848ZM51.522,53.23,54.1,50.654H49.761Zm-4.167-7.309v-.483a1.414,1.414,0,0,0-.435-1.02l9.108-7.342L53.636,45.92H47.354Zm9.524,87.764,7.874-7.874v7.874Zm-10.016,0h4.974V58.545H47.355v.483a1.423,1.423,0,0,1-1.42,1.42H32.346a1.423,1.423,0,0,1-1.42-1.42V45.438a1.423,1.423,0,0,1,1.42-1.42H41.4l16.3-13.143.671-2.485a2.363,2.363,0,0,1,2.283-1.753l6.459,0A2.366,2.366,0,0,1,69.483,29v1.01l33.069,15.911h3.937a2.361,2.361,0,0,1,1.619.641l9.332,7.8a2.365,2.365,0,0,1-1.516,4.173l-7.9,0v9.03H111.1a.949.949,0,0,1,.947.947v9.94a.949.949,0,0,1-.947.947h-9.939a.949.949,0,0,1-.947-.947v-9.94a.949.949,0,0,1,.947-.947h3.076v-9.03H69.485v75.139h4.974a.949.949,0,0,1,.947.947v7.01a.949.949,0,0,1-.947.947h-27.6a.949.949,0,0,1-.947-.947v-7.01a.95.95,0,0,1,.947-.946Z" transform="translate(-30.926 -26.635)" fill-rule="evenodd" opacity="0.25" fill="url(#linear-gradient)"/>
</svg>
