<svg xmlns="http://www.w3.org/2000/svg" xmlns:xlink="http://www.w3.org/1999/xlink" width="103.869" height="103.869" viewBox="0 0 103.869 103.869">
  <defs>
    <linearGradient id="linear-gradient" x1="0.291" y1="-0.404" x2="0.5" y2="1" gradientUnits="objectBoundingBox">
      <stop offset="0" stop-color="#f15d63"/>
      <stop offset="1" stop-color="#ec1c24"/>
    </linearGradient>
  </defs>
  <g id="noun-brand-2276556" transform="translate(0.001)" opacity="0.25">
    <path id="Union_3" data-name="Union 3" d="M35.777,98.588C40.875,96.156,48.74,94.7,57.24,94.7c8.541,0,16.435,1.467,21.538,3.916a46.528,46.528,0,0,1-43-.031Zm39.6-5.088a70.176,70.176,0,0,0,5.553-14.4c6.335-.418,12.7-1.008,18.448-1.82A46.8,46.8,0,0,1,82.393,96.523,30.17,30.17,0,0,0,75.376,93.5ZM15.233,77.258c5.018.691,10.878,1.277,17.106,1.715a69.867,69.867,0,0,0,5.755,14.855,28.674,28.674,0,0,0-5.941,2.652A46.76,46.76,0,0,1,15.233,77.258Zm20.9,1.969c6.391.383,13.018.609,19.388.646V91.145a66.14,66.14,0,0,0-13.9,1.686A65.155,65.155,0,0,1,36.131,79.227ZM59.1,91.145V79.873c5.34-.031,11.595-.2,18.045-.551A65.281,65.281,0,0,1,71.8,92.586,67.435,67.435,0,0,0,59.1,91.145Zm0-32.064c6.945-.033,14.144-.307,21.038-.766a81.953,81.953,0,0,1-2.054,17.373c-6.774.389-13.382.576-18.984.605Zm-23.906,16.5a82.065,82.065,0,0,1-2.039-17.561c7.1.65,14.6,1,22.361,1.055V76.293C48.825,76.252,41.854,76,35.191,75.582ZM83.726,58.057c7.46-.576,14.41-1.357,20.095-2.3.015.516.049,1.025.049,1.543A46.47,46.47,0,0,1,101,73.422C95.148,74.33,88.479,75,81.792,75.451A85.6,85.6,0,0,0,83.726,58.057ZM13.613,73.412A46.432,46.432,0,0,1,10.746,57.3c0-.654.021-1.307.045-1.957,1.823.252,3.862.494,5.876.732.556.066,1.091.131,1.615.191l4.513,4.512a3.574,3.574,0,0,0,5.063,0l1.747-1.74a85.694,85.694,0,0,0,1.872,16.283C24.85,74.84,18.676,74.184,13.613,73.412ZM0,32.924,32.926,0,56.987,1.266l1.262,24.057L25.329,58.25Zm23.229-5.5-6.395,4.6,7.294,2.1,2.1,7.295,4.6-6.4,7.692-.094-4.452-6.053,2.655-7.35-7.35,2.654-6.052-4.453ZM44.323,8.863a3.579,3.579,0,1,0,2.531-1.049A3.584,3.584,0,0,0,44.323,8.863ZM59.1,38.783c6.391-.033,12.694-.281,18.792-.736a81.394,81.394,0,0,1,2.2,16.678c-6.87.465-14.059.738-20.993.779ZM34.132,54.508,49.967,38.674c1.862.041,3.739.1,5.552.109V55.492C48.1,55.445,40.941,55.113,34.132,54.508ZM81.483,37.744c5.875-.539,11.388-1.252,16.461-2.145l.035-.006,0,.006.429-.105a46.023,46.023,0,0,1,5.148,16.682c-5.577.939-12.478,1.721-19.9,2.3A85.061,85.061,0,0,0,81.483,37.744ZM11.12,51.771c.091-.781.217-1.553.343-2.32l2.726,2.721C13.129,52.039,12.089,51.908,11.12,51.771ZM59.1,29.547l1.686-1.689a3.6,3.6,0,0,0,1.045-2.721l-.1-1.814a46.829,46.829,0,0,0,9.8-1.8,64.728,64.728,0,0,1,5.386,13.008c-5.795.408-11.767.641-17.823.682Zm-5.618,5.619,2.039-2.039v2.08C54.853,35.2,54.15,35.174,53.479,35.166ZM74.942,20.3a67.816,67.816,0,0,0,6.082-3.033A46.193,46.193,0,0,1,96.479,32.217c-4.854.83-10.2,1.5-15.919,2.021A68.8,68.8,0,0,0,74.942,20.3ZM61.076,10.918a46.005,46.005,0,0,1,16.152,4.334,47.32,47.32,0,0,1-5.4,2.447A41.244,41.244,0,0,1,61.54,19.746Z" transform="translate(-0.001)" fill="url(#linear-gradient)"/>
  </g>
</svg>
