<svg id="Layer_2" data-name="Layer 2" xmlns="http://www.w3.org/2000/svg" width="14" height="14" viewBox="0 0 200 200"><defs><style>.cls-1{fill:#fff;stroke-width:0}</style></defs><g id="Layer_1-2" data-name="Layer 1"><g id="icon"><path class="cls-1" d="M143.33 200H56.67C25.42 200 0 174.58 0 143.33V56.67C0 25.42 25.42 0 56.67 0h86.66C174.58 0 200 25.42 200 56.67v86.66c0 31.25-25.42 56.67-56.67 56.67ZM56.67 19.26c-20.63 0-37.41 16.78-37.41 37.41v86.66c0 20.63 16.78 37.41 37.41 37.41h86.66c20.63 0 37.41-16.78 37.41-37.41V56.67c0-20.63-16.78-37.41-37.41-37.41H56.67Z"/><path class="cls-1" d="M100 152.13c-28.75 0-52.13-23.39-52.13-52.13S71.26 47.87 100 47.87s52.13 23.39 52.13 52.13-23.39 52.13-52.13 52.13Zm0-85c-18.13 0-32.87 14.75-32.87 32.87s14.75 32.87 32.87 32.87 32.87-14.75 32.87-32.87S118.12 67.13 100 67.13Z"/><circle class="cls-1" cx="153.25" cy="47.19" r="11.97"/></g></g></svg>
