<svg width="16" height="14" fill="none" xmlns="http://www.w3.org/2000/svg"><path d="m.567 14 5.545-6.343L.264.006C.29.004.307 0 .324 0L5.107 0c.042 0 .065.015.088.046.342.457.684.913 1.028 1.367l1.465 1.932L8.5 4.42l.042.053.312-.357.89-1.017 2.66-3.046A.134.134 0 0 1 12.517 0c.745.002 1.49.001 2.235.001h.073L9.64 5.93l6.097 8.065c-.023.002-.04.004-.058.004L11.016 14a.092.092 0 0 1-.084-.04l-2.52-3.3-1.144-1.494a5.349 5.349 0 0 0-.046-.06l-.45.515-1.578 1.802L3.23 13.67c-.087.1-.172.2-.26.296-.015.017-.041.033-.062.033H.567V14Zm12.352-1.42h.01l-.007-.013c-.01-.016-.02-.032-.032-.047l-1.245-1.648L9.82 8.46 8.36 6.527 6.865 4.55c-.464-.612-.929-1.222-1.392-1.835-.342-.452-.683-.907-1.024-1.36l-.015-.008h-1.4l.042.06c.277.36.553.723.83 1.085l1.456 1.904 1.619 2.117L8.432 8.41l1.29 1.687c.62.813 1.241 1.625 1.863 2.436.017.022.048.047.073.047.42.002.84 0 1.26 0h.001Z" fill="#fff"/></svg>
